<svg width="190" height="190" viewBox="0 0 190 190" fill="none" xmlns="http://www.w3.org/2000/svg">
<g id="cookie-svgrepo-com 1">
<g id="Body">
<path id="Vector" d="M109.609 67.4531L117.031 12.2344C109.906 10.4531 102.781 6 95.0625 6C87.3438 6 80.2188 10.4531 72.7969 12.5312C65.375 14.3125 57.0625 14.0156 50.5312 17.875C44 21.7344 39.8438 29.1563 34.5 34.5C29.1563 39.8438 21.7344 44 17.875 50.5312C14.0156 57.0625 14.3125 65.375 12.2344 72.7969C10.4531 80.2188 6 87.3438 6 95.0625C6 102.781 10.4531 109.906 12.5312 117.328C14.3125 124.75 14.0156 133.062 17.875 139.594C21.7344 146.125 29.1563 150.281 34.5 155.625C39.8438 160.969 43.7031 168.391 50.5312 172.25C57.0625 176.109 65.375 175.812 72.7969 177.891C80.2188 179.672 87.3438 184.125 95.0625 184.125C102.781 184.125 109.906 179.672 117.328 177.594C124.75 175.516 133.062 175.812 139.594 171.953C146.125 168.094 150.281 160.672 155.625 155.328C160.969 149.984 168.391 146.125 172.25 139.297C176.109 132.766 175.812 124.453 177.891 117.031C179.672 109.906 184.125 102.781 184.125 95.0625C184.125 87.3438 177.891 71.0156 177.891 71.0156L109.609 67.4531Z" fill="#DDA85F"/>
<path id="Vector_2" d="M176.531 67.6182C173.529 68.5214 169.325 68.2203 164.822 66.414C158.517 64.0055 154.614 58.8874 153.413 52.8662C150.41 53.7694 143.205 52.8662 138.401 49.8556C131.195 45.3397 129.694 32.6952 129.694 32.6952C121.587 30.2867 115.583 20.6528 116.483 12.5241C109.878 10.7178 101.471 11.0188 94.2656 11.0188C87.0598 11.0188 80.4546 15.2337 73.8493 17.04C66.9438 18.8464 59.1376 18.5453 53.1328 22.1581C47.128 25.7708 43.2249 32.6952 38.4211 37.5121C33.317 42.6302 26.4115 46.2429 23.1089 52.2641C19.506 58.2853 19.8062 66.1129 18.0048 73.0373C16.2033 79.6606 12 86.284 12 93.5094C12 100.735 16.2033 107.358 18.0048 113.982C19.8062 120.906 19.506 128.733 23.1089 134.755C26.7117 140.776 33.6172 144.69 38.4211 149.507C43.5251 154.625 47.128 161.549 53.1328 164.861C59.1376 168.473 66.9438 168.172 73.8493 169.979C80.4546 171.785 87.0598 176 94.2656 176C101.471 176 108.077 171.785 114.682 169.979C121.587 168.172 129.394 168.473 135.398 164.861C141.403 161.248 145.306 154.324 150.11 149.507C155.214 144.389 162.12 140.776 165.422 134.755C169.025 128.733 168.725 120.906 170.526 113.982C172.328 107.358 179.534 101.939 180.434 94.7136C182.836 82.9723 176.831 69.7256 176.531 67.6182Z" fill="#F2CB7D"/>
<path id="Vector_3" d="M35.0313 64.1563C32.0625 69.2031 36.5156 78.4062 42.4531 81.0781C51.0625 84.6406 56.1094 85.2344 61.4531 76.0313C63.2344 72.7656 65.6094 64.1562 64.7188 62.0781C63.5313 59.1094 58.4844 53.1719 55.2188 53.1719C46.0156 53.4688 37.1094 60.5938 35.0313 64.1563" fill="#6D4934"/>
<path id="Vector_4" d="M36.5156 64.1563C34.4375 67.7188 39.7812 78.4063 46.9062 77.5156C56.7031 76.3281 55.8125 56.1406 51.6562 56.1406C44.5312 56.1406 38 61.4844 36.5156 64.1563" fill="#A37F6A"/>
<path id="Vector_5" d="M130.031 111.953C133.297 111.063 138.344 100.969 133 100.375C123.797 98.8906 116.672 103.344 117.563 108.391C118.453 113.438 127.656 112.547 130.031 111.953" fill="#A37F6A"/>
<path id="Vector_6" d="M134.187 119.078C138.344 117.891 141.312 110.469 139.531 106.016C136.859 99.1875 134.187 96.2187 126.469 98.2969C123.797 99.1875 117.563 102.453 116.969 103.937C116.078 106.312 115.484 112.25 117.266 114.031C122.312 119.078 131.219 119.969 134.187 119.078Z" fill="#6D4934"/>
<path id="Vector_7" d="M78.7569 135.603C77.6319 131.627 69.382 128.645 64.132 130.633C56.632 133.284 53.257 135.603 55.882 143.225C56.632 145.876 60.382 151.84 62.257 152.172C64.882 153.166 71.257 153.497 73.132 151.84C78.7569 147.201 79.5069 138.586 78.7569 135.603Z" fill="#6D4934"/>
<path id="Vector_8" d="M68.875 132.437C68.2813 129.766 55.8125 133.625 57 138.375C59.375 146.391 59.375 147.578 61.75 147.281C66.2031 146.094 69.1719 134.516 68.875 132.437Z" fill="#A37F6A"/>
<path id="Vector_9" d="M151.703 78.7031C148.141 79.5937 145.469 86.125 147.25 90.2812C149.625 96.2187 155.266 97.1094 161.5 93.8437C166.844 91.1719 167.141 81.6719 165.656 79.8906C161.203 75.4375 154.375 78.1094 151.703 78.7031" fill="#6D4934"/>
<path id="Vector_10" d="M150.219 81.9687C148.437 84.0469 146.953 92.3594 151.406 91.1719C159.422 88.7969 165.062 80.7812 161.5 79.5937C157.047 78.1094 152.297 79.5937 150.219 81.9687" fill="#A37F6A"/>
<path id="Vector_11" d="M67.5094 50.8325L73.3875 44.9544L79.2656 50.8325L73.3875 56.7106L67.5094 50.8325Z" fill="#6D4934"/>
<g id="Group">
<path id="Vector_12" d="M43.6584 102.403L49.5336 96.5245L55.4117 102.4L49.5366 108.278L43.6584 102.403Z" fill="#DDA85F"/>
<path id="Vector_13" d="M103.01 136.033L108.888 130.155L114.766 136.033L108.888 141.911L103.01 136.033Z" fill="#DDA85F"/>
<path id="Vector_14" d="M95.1128 119.639L103.09 111.662L111.067 119.639L103.09 127.616L95.1128 119.639Z" fill="#DDA85F"/>
<path id="Vector_15" d="M73.3163 32.1739L81.2933 24.1969L89.2703 32.1739L81.2933 40.1509L73.3163 32.1739Z" fill="#DDA85F"/>
</g>
<g id="Group_2">
<path id="Vector_16" d="M122.081 140.593L127.959 134.715L133.837 140.593L127.959 146.471L122.081 140.593Z" fill="#6D4934"/>
<path id="Vector_17" d="M145.694 107.545L151.572 101.666L157.451 107.545L151.572 113.423L145.694 107.545Z" fill="#6D4934"/>
<path id="Vector_18" d="M124.129 76.1411L127.068 73.202L130.007 76.1411L127.068 79.0802L124.129 76.1411Z" fill="#6D4934"/>
<path id="Vector_19" d="M40.7491 116.602L43.6881 113.663L46.6272 116.602L43.6881 119.541L40.7491 116.602Z" fill="#6D4934"/>
</g>
</g>
<g id="parts">
<path id="Vector_20" d="M165.422 37.3513L165.056 39.4503L164.689 41.6339L164.322 42.9542L163.222 44.5115L161.389 45.2901L159.189 45.6795L157.722 44.9008L156.622 43.9698L154.789 41.6339L154.422 40.4659V39.2979V38.13L154.789 36.5727L155.522 35.0154L156.622 33.4581L158.089 32.6795L162.856 33.0688L165.056 34.3891L165.422 37.3513Z" fill="#DDA85F"/>
<path id="Vector_21" d="M163.828 51.5232L162.047 53.6013L159.969 51.5232L162.047 49.4451L163.828 51.5232Z" fill="#DDA85F"/>
<path id="Vector_22" d="M151.422 22.3513L151.056 24.4503L150.689 26.6339L150.322 27.9542L149.222 29.5115L147.389 30.2901L145.189 30.6795L143.722 29.9008L142.622 28.9698L140.789 26.6339L140.422 25.4659V24.2979V23.13L140.789 21.5727L141.522 20.0154L142.622 18.4581L144.089 17.6795L148.856 18.0688L151.056 19.3891L151.422 22.3513Z" fill="#DDA85F"/>
<path id="Vector_23" d="M148.985 37.867L146.907 39.9451L144.828 37.867L146.907 35.7888L148.985 37.867Z" fill="#DDA85F"/>
<path id="Vector_24" d="M133.302 18.1795L131.922 19.1795L129.922 20.002L128.422 19.6795L127.422 19.1795L126.422 17.6795L126.922 15.6795L128.422 14.1795L129.922 13.6795L131.922 14.1795L133.302 14.8997L133.922 16.6795L133.302 18.1795Z" fill="#DDA85F"/>
<path id="Vector_25" d="M167.985 58.9451L165.907 61.0232L163.828 58.9451L165.907 56.867L167.985 58.9451Z" fill="#DDA85F"/>
<path id="Vector_26" d="M169.766 51.5232L167.688 53.6013L165.61 51.5232L167.688 49.4451L169.766 51.5232Z" fill="#DDA85F"/>
<path id="Vector_27" d="M165.302 26.1775L163.922 27.1775L161.922 28L160.422 27.6775L159.422 27.1775L158.422 25.6775L158.922 23.6775L160.422 22.1775L161.922 21.6775L163.922 22.1775L165.302 22.8977L165.922 24.6775L165.302 26.1775Z" fill="#DDA85F"/>
<path id="Vector_28" d="M174.058 42L172.677 43L170.677 43.8225L169.177 43.3225L168.177 43L167.177 41.5L167.677 39.5L169.177 38L170.677 37.5L172.677 38L174.058 38.7203L174.677 40.5L174.058 42Z" fill="#DDA85F"/>
</g>
</g>
</svg>
